<svg xmlns="http://www.w3.org/2000/svg" xmlns:xlink="http://www.w3.org/1999/xlink" version="1.1" class="marks" width="1081" height="528" viewBox="0 0 1081 528"><rect width="1081" height="528" fill="white"/><g fill="none" stroke-miterlimit="10" transform="translate(51,112)"><g class="mark-group role-frame root" role="graphics-object" aria-roledescription="group mark container"><g transform="translate(0,0)"><path class="background" aria-hidden="true" d="M0,0h0v330h0Z"/><g><g class="mark-group role-scope concat_0_group" role="graphics-object" aria-roledescription="group mark container"><g transform="translate(0,0)"><path class="background" aria-hidden="true" d="M0,0h430v330h-430Z"/><g><g class="mark-group role-axis" aria-hidden="true"><g transform="translate(0.5,330.5)"><path class="background" aria-hidden="true" d="M0,0h0v0h0Z" pointer-events="none"/><g><g class="mark-rule role-axis-grid" pointer-events="none"><line transform="translate(0,-330)" x2="0" y2="330" stroke="#e8e8e8" stroke-width="1" opacity="1"/><line transform="translate(76,-330)" x2="0" y2="330" stroke="#e8e8e8" stroke-width="1" opacity="1"/><line transform="translate(159,-330)" x2="0" y2="330" stroke="#e8e8e8" stroke-width="1" opacity="1"/><line transform="translate(235,-330)" x2="0" y2="330" stroke="#e8e8e8" stroke-width="1" opacity="1"/><line transform="translate(319,-330)" x2="0" y2="330" stroke="#e8e8e8" stroke-width="1" opacity="1"/><line transform="translate(395,-330)" x2="0" y2="330" stroke="#e8e8e8" stroke-width="1" opacity="1"/></g></g><path class="foreground" aria-hidden="true" d="" pointer-events="none" display="none"/></g></g><g class="mark-group role-axis" aria-hidden="true"><g transform="translate(0.5,0.5)"><path class="background" aria-hidden="true" d="M0,0h0v0h0Z" pointer-events="none"/><g><g class="mark-rule role-axis-grid" pointer-events="none"><line transform="translate(0,330)" x2="430" y2="0" stroke="#e8e8e8" stroke-width="1" opacity="1"/><line transform="translate(0,264)" x2="430" y2="0" stroke="#e8e8e8" stroke-width="1" opacity="1"/><line transform="translate(0,198)" x2="430" y2="0" stroke="#e8e8e8" stroke-width="1" opacity="1"/><line transform="translate(0,111)" x2="430" y2="0" stroke="#e8e8e8" stroke-width="1" opacity="1"/><line transform="translate(0,45)" x2="430" y2="0" stroke="#e8e8e8" stroke-width="1" opacity="1"/></g></g><path class="foreground" aria-hidden="true" d="" pointer-events="none" display="none"/></g></g><g class="mark-group role-axis" role="graphics-symbol" aria-roledescription="axis" aria-label="X-axis titled 'deployment harmful prevalence  π  (log scale)' for a log scale with values from 0.001 to 0.5"><g transform="translate(0.5,330.5)"><path class="background" aria-hidden="true" d="M0,0h0v0h0Z" pointer-events="none"/><g><g class="mark-rule role-axis-tick" pointer-events="none"><line transform="translate(0,0)" x2="0" y2="5" stroke="#888" stroke-width="1" opacity="1"/><line transform="translate(76,0)" x2="0" y2="5" stroke="#888" stroke-width="1" opacity="1"/><line transform="translate(159,0)" x2="0" y2="5" stroke="#888" stroke-width="1" opacity="1"/><line transform="translate(235,0)" x2="0" y2="5" stroke="#888" stroke-width="1" opacity="1"/><line transform="translate(319,0)" x2="0" y2="5" stroke="#888" stroke-width="1" opacity="1"/><line transform="translate(395,0)" x2="0" y2="5" stroke="#888" stroke-width="1" opacity="1"/></g><g class="mark-text role-axis-label" pointer-events="none"><text text-anchor="start" transform="translate(0,16)" font-family="sans-serif" font-size="11px" fill="#000" opacity="1">0.001</text><text text-anchor="middle" transform="translate(76.01497578700481,16)" font-family="sans-serif" font-size="11px" fill="#000" opacity="1">0.003</text><text text-anchor="middle" transform="translate(159.32003664701176,16)" font-family="sans-serif" font-size="11px" fill="#000" opacity="1">0.01</text><text text-anchor="middle" transform="translate(235.33501243401662,16)" font-family="sans-serif" font-size="11px" fill="#000" opacity="1">0.03</text><text text-anchor="middle" transform="translate(318.6400732940235,16)" font-family="sans-serif" font-size="11px" fill="#000" opacity="1">0.1</text><text text-anchor="middle" transform="translate(394.6550490810284,16)" font-family="sans-serif" font-size="11px" fill="#000" opacity="1">0.3</text></g><g class="mark-rule role-axis-domain" pointer-events="none"><line transform="translate(0,0)" x2="430" y2="0" stroke="#888" stroke-width="1" opacity="1"/></g><g class="mark-text role-axis-title" pointer-events="none"><text text-anchor="middle" transform="translate(215,31)" font-family="sans-serif" font-size="12px" font-weight="bold" fill="#000" opacity="1">deployment harmful prevalence  π  (log scale)</text></g></g><path class="foreground" aria-hidden="true" d="" pointer-events="none" display="none"/></g></g><g class="mark-group role-axis" role="graphics-symbol" aria-roledescription="axis" aria-label="Y-axis titled 'cost per exchange  (1.0 = always-on classifier)' for a log scale with values from 0.05 to 1.6"><g transform="translate(0.5,0.5)"><path class="background" aria-hidden="true" d="M0,0h0v0h0Z" pointer-events="none"/><g><g class="mark-rule role-axis-tick" pointer-events="none"><line transform="translate(0,330)" x2="-5" y2="0" stroke="#888" stroke-width="1" opacity="1"/><line transform="translate(0,264)" x2="-5" y2="0" stroke="#888" stroke-width="1" opacity="1"/><line transform="translate(0,198)" x2="-5" y2="0" stroke="#888" stroke-width="1" opacity="1"/><line transform="translate(0,111)" x2="-5" y2="0" stroke="#888" stroke-width="1" opacity="1"/><line transform="translate(0,45)" x2="-5" y2="0" stroke="#888" stroke-width="1" opacity="1"/></g><g class="mark-text role-axis-label" pointer-events="none"><text text-anchor="end" transform="translate(-7,333)" font-family="sans-serif" font-size="11px" fill="#000" opacity="1">0.05</text><text text-anchor="end" transform="translate(-7,267)" font-family="sans-serif" font-size="11px" fill="#000" opacity="1">0.1</text><text text-anchor="end" transform="translate(-7,201.00000000000003)" font-family="sans-serif" font-size="11px" fill="#000" opacity="1">0.2</text><text text-anchor="end" transform="translate(-7,113.75274573743411)" font-family="sans-serif" font-size="11px" fill="#000" opacity="1">0.5</text><text text-anchor="end" transform="translate(-7,47.75274573743409)" font-family="sans-serif" font-size="11px" fill="#000" opacity="1">1</text></g><g class="mark-rule role-axis-domain" pointer-events="none"><line transform="translate(0,330)" x2="0" y2="-330" stroke="#888" stroke-width="1" opacity="1"/></g><g class="mark-text role-axis-title" pointer-events="none"><text text-anchor="middle" transform="translate(-32.4091796875,165) rotate(-90) translate(0,-3)" font-family="sans-serif" font-size="12px" font-weight="bold" fill="#000" opacity="1">cost per exchange  (1.0 = always-on classifier)</text></g></g><path class="foreground" aria-hidden="true" d="" pointer-events="none" display="none"/></g></g><g class="mark-rule role-mark concat_0_layer_0_marks" role="graphics-object" aria-roledescription="rule mark container"><line aria-label="y: 1" role="graphics-symbol" aria-roledescription="rule mark" transform="translate(430,44.75274573743409)" x2="-430" y2="0" stroke="#444" stroke-width="1.5" stroke-dasharray="6,4"/></g><g class="mark-group role-scope concat_0_layer_1_pathgroup" role="graphics-object" aria-roledescription="group mark container"><g transform="translate(0,0)"><path class="background" aria-hidden="true" d="M0,0h430v330h-430Z"/><g><g class="mark-line role-mark concat_0_layer_1_marks" role="graphics-object" aria-roledescription="line mark container"><path aria-label="pi: 0.001; cost: 0.12; config (selected on validation): constrained_cost (recall&gt;=0.95)" role="graphics-symbol" aria-roledescription="line mark" d="M0,244.266L1.078,244.256L2.155,244.246L3.233,244.236L4.311,244.225L5.388,244.214L6.466,244.203L7.544,244.192L8.622,244.181L9.699,244.17L10.777,244.158L11.855,244.146L12.932,244.135L14.01,244.122L15.088,244.11L16.165,244.098L17.243,244.085L18.321,244.072L19.398,244.059L20.476,244.046L21.554,244.032L22.632,244.018L23.709,244.004L24.787,243.99L25.865,243.976L26.942,243.961L28.02,243.947L29.098,243.932L30.175,243.916L31.253,243.901L32.331,243.885L33.409,243.869L34.486,243.853L35.564,243.836L36.642,243.819L37.719,243.802L38.797,243.785L39.875,243.768L40.952,243.75L42.03,243.732L43.108,243.713L44.185,243.695L45.263,243.676L46.341,243.656L47.419,243.637L48.496,243.617L49.574,243.597L50.652,243.576L51.729,243.556L52.807,243.535L53.885,243.513L54.962,243.491L56.04,243.469L57.118,243.447L58.195,243.424L59.273,243.401L60.351,243.377L61.429,243.354L62.506,243.329L63.584,243.305L64.662,243.28L65.739,243.254L66.817,243.229L67.895,243.202L68.972,243.176L70.05,243.149L71.128,243.122L72.206,243.094L73.283,243.065L74.361,243.037L75.439,243.008L76.516,242.978L77.594,242.948L78.672,242.918L79.749,242.887L80.827,242.855L81.905,242.823L82.982,242.791L84.06,242.758L85.138,242.725L86.216,242.691L87.293,242.656L88.371,242.621L89.449,242.586L90.526,242.55L91.604,242.513L92.682,242.476L93.759,242.438L94.837,242.4L95.915,242.361L96.992,242.322L98.07,242.282L99.148,242.241L100.226,242.2L101.303,242.158L102.381,242.115L103.459,242.072L104.536,242.028L105.614,241.984L106.692,241.938L107.769,241.892L108.847,241.846L109.925,241.799L111.003,241.751L112.08,241.702L113.158,241.652L114.236,241.602L115.313,241.551L116.391,241.499L117.469,241.447L118.546,241.393L119.624,241.339L120.702,241.284L121.779,241.228L122.857,241.172L123.935,241.114L125.013,241.056L126.09,240.996L127.168,240.936L128.246,240.875L129.323,240.813L130.401,240.75L131.479,240.686L132.556,240.621L133.634,240.556L134.712,240.489L135.789,240.421L136.867,240.352L137.945,240.282L139.023,240.212L140.1,240.14L141.178,240.067L142.256,239.993L143.333,239.917L144.411,239.841L145.489,239.764L146.566,239.685L147.644,239.605L148.722,239.524L149.799,239.442L150.877,239.359L151.955,239.274L153.033,239.188L154.11,239.101L155.188,239.013L156.266,238.923L157.343,238.832L158.421,238.74L159.499,238.646L160.576,238.551L161.654,238.454L162.732,238.356L163.81,238.257L164.887,238.156L165.965,238.054L167.043,237.95L168.12,237.845L169.198,237.738L170.276,237.63L171.353,237.52L172.431,237.408L173.509,237.295L174.586,237.18L175.664,237.064L176.742,236.945L177.82,236.826L178.897,236.704L179.975,236.581L181.053,236.455L182.13,236.329L183.208,236.2L184.286,236.069L185.363,235.937L186.441,235.803L187.519,235.666L188.596,235.528L189.674,235.388L190.752,235.246L191.83,235.102L192.907,234.955L193.985,234.807L195.063,234.657L196.14,234.504L197.218,234.35L198.296,234.193L199.373,234.034L200.451,233.873L201.529,233.709L202.607,233.544L203.684,233.376L204.762,233.205L205.84,233.033L206.917,232.857L207.995,232.68L209.073,232.5L210.15,232.317L211.228,232.132L212.306,231.945L213.383,231.755L214.461,231.562L215.539,231.367L216.617,231.169L217.694,230.968L218.772,230.765L219.85,230.559L220.927,230.35L222.005,230.138L223.083,229.924L224.16,229.706L225.238,229.486L226.316,229.263L227.393,229.036L228.471,228.807L229.549,228.575L230.627,228.34L231.704,228.101L232.782,227.86L233.86,227.615L234.937,227.367L236.015,227.116L237.093,226.861L238.17,226.604L239.248,226.343L240.326,226.078L241.404,225.81L242.481,225.539L243.559,225.264L244.637,224.986L245.714,224.704L246.792,224.419L247.87,224.13L248.947,223.837L250.025,223.541L251.103,223.241L252.18,222.937L253.258,222.63L254.336,222.319L255.414,222.003L256.491,221.684L257.569,221.361L258.647,221.034L259.724,220.704L260.802,220.369L261.88,220.03L262.957,219.687L264.035,219.339L265.113,218.988L266.19,218.632L267.268,218.273L268.346,217.909L269.424,217.54L270.501,217.168L271.579,216.791L272.657,216.409L273.734,216.023L274.812,215.633L275.89,215.238L276.967,214.839L278.045,214.435L279.123,214.026L280.201,213.613L281.278,213.195L282.356,212.773L283.434,212.346L284.511,211.914L285.589,211.477L286.667,211.036L287.744,210.589L288.822,210.138L289.9,209.682L290.977,209.221L292.055,208.755L293.133,208.283L294.211,207.807L295.288,207.326L296.366,206.84L297.444,206.349L298.521,205.852L299.599,205.351L300.677,204.844L301.754,204.332L302.832,203.815L303.91,203.292L304.987,202.764L306.065,202.231L307.143,201.693L308.221,201.149L309.298,200.6L310.376,200.046L311.454,199.486L312.531,198.92L313.609,198.349L314.687,197.773L315.764,197.191L316.842,196.604L317.92,196.011L318.997,195.413L320.075,194.809L321.153,194.199L322.231,193.584L323.308,192.963L324.386,192.337L325.464,191.705L326.541,191.067L327.619,190.423L328.697,189.774L329.774,189.12L330.852,188.459L331.93,187.793L333.008,187.121L334.085,186.444L335.163,185.76L336.241,185.071L337.318,184.376L338.396,183.676L339.474,182.969L340.551,182.257L341.629,181.539L342.707,180.816L343.784,180.086L344.862,179.351L345.94,178.61L347.018,177.863L348.095,177.111L349.173,176.353L350.251,175.588L351.328,174.819L352.406,174.043L353.484,173.262L354.561,172.475L355.639,171.682L356.717,170.883L357.794,170.079L358.872,169.269L359.95,168.453L361.028,167.631L362.105,166.804L363.183,165.971L364.261,165.133L365.338,164.288L366.416,163.438L367.494,162.583L368.571,161.722L369.649,160.855L370.727,159.983L371.805,159.105L372.882,158.221L373.96,157.332L375.038,156.437L376.115,155.537L377.193,154.631L378.271,153.72L379.348,152.804L380.426,151.881L381.504,150.954L382.581,150.021L383.659,149.083L384.737,148.139L385.815,147.19L386.892,146.236L387.97,145.276L389.048,144.312L390.125,143.341L391.203,142.366L392.281,141.386L393.358,140.4L394.436,139.409L395.514,138.413L396.591,137.413L397.669,136.406L398.747,135.395L399.825,134.379L400.902,133.358L401.98,132.332L403.058,131.302L404.135,130.266L405.213,129.225L406.291,128.18L407.368,127.13L408.446,126.075L409.524,125.015L410.602,123.951L411.679,122.882L412.757,121.808L413.835,120.73L414.912,119.647L415.99,118.56L417.068,117.468L418.145,116.371L419.223,115.271L420.301,114.165L421.378,113.056L422.456,111.942L423.534,110.824L424.612,109.701L425.689,108.575L426.767,107.444L427.845,106.309L428.922,105.169L430,104.026" stroke="#1f77b4" stroke-width="2.5"/></g></g><path class="foreground" aria-hidden="true" d="" display="none"/></g><g transform="translate(0,0)"><path class="background" aria-hidden="true" d="M0,0h430v330h-430Z"/><g><g class="mark-line role-mark concat_0_layer_1_marks" role="graphics-object" aria-roledescription="line mark container"><path aria-label="pi: 0.001; cost: 0.37; config (selected on validation): max_f1" role="graphics-symbol" aria-roledescription="line mark" d="M0,140.662L1.078,140.66L2.155,140.657L3.233,140.654L4.311,140.652L5.388,140.649L6.466,140.646L7.544,140.644L8.622,140.641L9.699,140.638L10.777,140.635L11.855,140.632L12.932,140.629L14.01,140.626L15.088,140.623L16.165,140.62L17.243,140.617L18.321,140.613L19.398,140.61L20.476,140.607L21.554,140.603L22.632,140.6L23.709,140.596L24.787,140.593L25.865,140.589L26.942,140.585L28.02,140.582L29.098,140.578L30.175,140.574L31.253,140.57L32.331,140.566L33.409,140.562L34.486,140.558L35.564,140.554L36.642,140.55L37.719,140.545L38.797,140.541L39.875,140.537L40.952,140.532L42.03,140.528L43.108,140.523L44.185,140.518L45.263,140.513L46.341,140.509L47.419,140.504L48.496,140.499L49.574,140.494L50.652,140.488L51.729,140.483L52.807,140.478L53.885,140.472L54.962,140.467L56.04,140.461L57.118,140.456L58.195,140.45L59.273,140.444L60.351,140.438L61.429,140.432L62.506,140.426L63.584,140.42L64.662,140.413L65.739,140.407L66.817,140.401L67.895,140.394L68.972,140.387L70.05,140.38L71.128,140.373L72.206,140.366L73.283,140.359L74.361,140.352L75.439,140.345L76.516,140.337L77.594,140.329L78.672,140.322L79.749,140.314L80.827,140.306L81.905,140.298L82.982,140.29L84.06,140.281L85.138,140.273L86.216,140.264L87.293,140.255L88.371,140.247L89.449,140.237L90.526,140.228L91.604,140.219L92.682,140.21L93.759,140.2L94.837,140.19L95.915,140.18L96.992,140.17L98.07,140.16L99.148,140.15L100.226,140.139L101.303,140.128L102.381,140.118L103.459,140.107L104.536,140.095L105.614,140.084L106.692,140.072L107.769,140.061L108.847,140.049L109.925,140.037L111.003,140.024L112.08,140.012L113.158,139.999L114.236,139.986L115.313,139.973L116.391,139.96L117.469,139.946L118.546,139.933L119.624,139.919L120.702,139.905L121.779,139.89L122.857,139.876L123.935,139.861L125.013,139.846L126.09,139.831L127.168,139.815L128.246,139.799L129.323,139.783L130.401,139.767L131.479,139.751L132.556,139.734L133.634,139.717L134.712,139.7L135.789,139.682L136.867,139.664L137.945,139.646L139.023,139.628L140.1,139.609L141.178,139.59L142.256,139.571L143.333,139.552L144.411,139.532L145.489,139.512L146.566,139.491L147.644,139.47L148.722,139.449L149.799,139.428L150.877,139.406L151.955,139.384L153.033,139.362L154.11,139.339L155.188,139.316L156.266,139.292L157.343,139.269L158.421,139.244L159.499,139.22L160.576,139.195L161.654,139.169L162.732,139.144L163.81,139.118L164.887,139.091L165.965,139.064L167.043,139.037L168.12,139.009L169.198,138.981L170.276,138.952L171.353,138.923L172.431,138.894L173.509,138.864L174.586,138.833L175.664,138.802L176.742,138.771L177.82,138.739L178.897,138.707L179.975,138.674L181.053,138.64L182.13,138.606L183.208,138.572L184.286,138.537L185.363,138.502L186.441,138.466L187.519,138.429L188.596,138.392L189.674,138.354L190.752,138.316L191.83,138.277L192.907,138.238L193.985,138.198L195.063,138.157L196.14,138.116L197.218,138.074L198.296,138.032L199.373,137.988L200.451,137.945L201.529,137.9L202.607,137.855L203.684,137.809L204.762,137.762L205.84,137.715L206.917,137.667L207.995,137.618L209.073,137.569L210.15,137.519L211.228,137.468L212.306,137.416L213.383,137.364L214.461,137.31L215.539,137.256L216.617,137.201L217.694,137.145L218.772,137.089L219.85,137.031L220.927,136.973L222.005,136.914L223.083,136.854L224.16,136.793L225.238,136.731L226.316,136.668L227.393,136.604L228.471,136.539L229.549,136.474L230.627,136.407L231.704,136.339L232.782,136.27L233.86,136.201L234.937,136.13L236.015,136.058L237.093,135.985L238.17,135.911L239.248,135.836L240.326,135.76L241.404,135.682L242.481,135.604L243.559,135.524L244.637,135.443L245.714,135.361L246.792,135.278L247.87,135.193L248.947,135.108L250.025,135.02L251.103,134.932L252.18,134.843L253.258,134.752L254.336,134.659L255.414,134.566L256.491,134.471L257.569,134.374L258.647,134.276L259.724,134.177L260.802,134.076L261.88,133.974L262.957,133.871L264.035,133.765L265.113,133.659L266.19,133.55L267.268,133.44L268.346,133.329L269.424,133.216L270.501,133.101L271.579,132.985L272.657,132.867L273.734,132.747L274.812,132.626L275.89,132.502L276.967,132.377L278.045,132.251L279.123,132.122L280.201,131.992L281.278,131.859L282.356,131.725L283.434,131.589L284.511,131.451L285.589,131.311L286.667,131.169L287.744,131.025L288.822,130.879L289.9,130.731L290.977,130.581L292.055,130.428L293.133,130.274L294.211,130.117L295.288,129.958L296.366,129.797L297.444,129.634L298.521,129.468L299.599,129.301L300.677,129.13L301.754,128.958L302.832,128.783L303.91,128.605L304.987,128.426L306.065,128.243L307.143,128.059L308.221,127.871L309.298,127.681L310.376,127.489L311.454,127.294L312.531,127.096L313.609,126.895L314.687,126.692L315.764,126.486L316.842,126.278L317.92,126.066L318.997,125.852L320.075,125.635L321.153,125.414L322.231,125.191L323.308,124.965L324.386,124.736L325.464,124.504L326.541,124.269L327.619,124.031L328.697,123.79L329.774,123.545L330.852,123.297L331.93,123.046L333.008,122.792L334.085,122.535L335.163,122.274L336.241,122.01L337.318,121.742L338.396,121.471L339.474,121.197L340.551,120.919L341.629,120.637L342.707,120.352L343.784,120.063L344.862,119.771L345.94,119.475L347.018,119.175L348.095,118.872L349.173,118.564L350.251,118.253L351.328,117.938L352.406,117.62L353.484,117.297L354.561,116.97L355.639,116.64L356.717,116.305L357.794,115.966L358.872,115.623L359.95,115.277L361.028,114.925L362.105,114.57L363.183,114.211L364.261,113.847L365.338,113.479L366.416,113.106L367.494,112.73L368.571,112.349L369.649,111.963L370.727,111.573L371.805,111.179L372.882,110.78L373.96,110.376L375.038,109.968L376.115,109.555L377.193,109.137L378.271,108.715L379.348,108.288L380.426,107.857L381.504,107.42L382.581,106.979L383.659,106.533L384.737,106.082L385.815,105.626L386.892,105.166L387.97,104.7L389.048,104.229L390.125,103.753L391.203,103.273L392.281,102.787L393.358,102.296L394.436,101.8L395.514,101.298L396.591,100.792L397.669,100.28L398.747,99.764L399.825,99.241L400.902,98.714L401.98,98.181L403.058,97.643L404.135,97.1L405.213,96.551L406.291,95.997L407.368,95.437L408.446,94.872L409.524,94.302L410.602,93.726L411.679,93.144L412.757,92.558L413.835,91.965L414.912,91.367L415.99,90.763L417.068,90.154L418.145,89.539L419.223,88.919L420.301,88.293L421.378,87.661L422.456,87.024L423.534,86.381L424.612,85.732L425.689,85.078L426.767,84.418L427.845,83.752L428.922,83.081L430,82.403" stroke="#d62728" stroke-width="2.5"/></g></g><path class="foreground" aria-hidden="true" d="" display="none"/></g></g><g class="mark-symbol role-mark concat_0_layer_2_marks" role="graphics-object" aria-roledescription="symbol mark container"><path aria-label="pi: 0.001; cost: 0.1230288; config (selected on validation): constrained_cost (recall&gt;=0.95); config: constrained_cost (recall&gt;=0.95)" role="graphics-symbol" aria-roledescription="point" transform="translate(0,244.26625886593686)" d="M4.183,0A4.183,4.183,0,1,1,-4.183,0A4.183,4.183,0,1,1,4.183,0" fill="#1f77b4" stroke-width="2" opacity="1"/><path aria-label="pi: 0.01; cost: 0.130488; config (selected on validation): constrained_cost (recall&gt;=0.95); config: constrained_cost (recall&gt;=0.95)" role="graphics-symbol" aria-roledescription="point" transform="translate(159.32003664701176,238.66146882055858)" d="M4.183,0A4.183,4.183,0,1,1,-4.183,0A4.183,4.183,0,1,1,4.183,0" fill="#1f77b4" stroke-width="2" opacity="1"/><path aria-label="pi: 0.05; cost: 0.16364; config (selected on validation): constrained_cost (recall&gt;=0.95); config: constrained_cost (recall&gt;=0.95)" role="graphics-symbol" aria-roledescription="point" transform="translate(270.67996335298824,217.10532080565264)" d="M4.183,0A4.183,4.183,0,1,1,-4.183,0A4.183,4.183,0,1,1,4.183,0" fill="#1f77b4" stroke-width="2" opacity="1"/><path aria-label="pi: 0.2; cost: 0.28796; config (selected on validation): constrained_cost (recall&gt;=0.95); config: constrained_cost (recall&gt;=0.95)" role="graphics-symbol" aria-roledescription="point" transform="translate(366.6001832350588,163.29268405294803)" d="M4.183,0A4.183,4.183,0,1,1,-4.183,0A4.183,4.183,0,1,1,4.183,0" fill="#1f77b4" stroke-width="2" opacity="1"/><path aria-label="pi: 0.001; cost: 0.3652176; config (selected on validation): max_f1; config: max_f1" role="graphics-symbol" aria-roledescription="point" transform="translate(0,140.66208478616724)" d="M4.183,0A4.183,4.183,0,1,1,-4.183,0A4.183,4.183,0,1,1,4.183,0" fill="#d62728" stroke-width="2" opacity="1"/><path aria-label="pi: 0.01; cost: 0.370776; config (selected on validation): max_f1; config: max_f1" role="graphics-symbol" aria-roledescription="point" transform="translate(159.32003664701176,139.22384106697692)" d="M4.183,0A4.183,4.183,0,1,1,-4.183,0A4.183,4.183,0,1,1,4.183,0" fill="#d62728" stroke-width="2" opacity="1"/><path aria-label="pi: 0.05; cost: 0.39548; config (selected on validation): max_f1; config: max_f1" role="graphics-symbol" aria-roledescription="point" transform="translate(270.67996335298824,133.08208733477267)" d="M4.183,0A4.183,4.183,0,1,1,-4.183,0A4.183,4.183,0,1,1,4.183,0" fill="#d62728" stroke-width="2" opacity="1"/><path aria-label="pi: 0.2; cost: 0.48812; config (selected on validation): max_f1; config: max_f1" role="graphics-symbol" aria-roledescription="point" transform="translate(366.6001832350588,113.04243289331693)" d="M4.183,0A4.183,4.183,0,1,1,-4.183,0A4.183,4.183,0,1,1,4.183,0" fill="#d62728" stroke-width="2" opacity="1"/></g><g class="mark-text role-mark concat_0_layer_3_marks" role="graphics-object" aria-roledescription="text mark container"><text aria-label="pi: 0.45; y: 1; t: always-on classifier = 1.0" role="graphics-symbol" aria-roledescription="text mark" text-anchor="end" transform="translate(422.70991492699795,40.75274573743409)" font-family="sans-serif" font-size="11px" fill="#444">always-on classifier = 1.0</text></g><g class="mark-text role-mark concat_0_layer_4_marks" role="graphics-object" aria-roledescription="text mark container"><text aria-label="pi: 0.01; cost: 0.130488; t: π=0.01: 0.131 → ~13% of always-on cost, recall 0.95" role="graphics-symbol" aria-roledescription="text mark" text-anchor="start" transform="translate(168.32003664701176,257.6614688205586)" font-family="sans-serif" font-size="11.5px" font-weight="bold" fill="#1f77b4">π=0.01: 0.131 → ~13% of always-on cost, recall 0.95</text></g><g class="mark-group role-title"><g transform="translate(-45.4091796875,-45)"><path class="background" aria-hidden="true" d="M0,0h0v0h0Z" pointer-events="none"/><g><g class="mark-text role-title-text" role="graphics-symbol" aria-roledescription="title" aria-label="Title text 'A. Cascade cost vs always-on classifier'" pointer-events="none"><text text-anchor="start" transform="translate(0,11)" font-family="sans-serif" font-size="14px" font-weight="bold" fill="#000" opacity="1">A. Cascade cost vs always-on classifier</text></g><g class="mark-text role-title-subtitle" role="graphics-symbol" aria-roledescription="subtitle" aria-label="Subtitle text 'C = κ + r(π),  r(π) = π·r_H + (1−π)·r_B,  κ = 1e-3 dots = the four π values tabulated in the REPORTs'" pointer-events="none"><text text-anchor="start" transform="translate(0,26)" font-family="sans-serif" font-size="11px" fill="#555" opacity="1"><tspan>C = κ + r(π),  r(π) = π·r_H + (1−π)·r_B,  κ = 1e-3</tspan><tspan x="0" dy="13">dots = the four π values tabulated in the REPORTs</tspan></text></g></g><path class="foreground" aria-hidden="true" d="" pointer-events="none" display="none"/></g></g></g><path class="foreground" aria-hidden="true" d="" display="none"/></g></g><g class="mark-group role-scope concat_1_group" role="graphics-object" aria-roledescription="group mark container"><g transform="translate(534,0)"><path class="background" aria-hidden="true" d="M0,0h430v330h-430Z"/><g><g class="mark-group role-axis" aria-hidden="true"><g transform="translate(0.5,330.5)"><path class="background" aria-hidden="true" d="M0,0h0v0h0Z" pointer-events="none"/><g><g class="mark-rule role-axis-grid" pointer-events="none"><line transform="translate(0,-330)" x2="0" y2="330" stroke="#e8e8e8" stroke-width="1" opacity="1"/><line transform="translate(76,-330)" x2="0" y2="330" stroke="#e8e8e8" stroke-width="1" opacity="1"/><line transform="translate(159,-330)" x2="0" y2="330" stroke="#e8e8e8" stroke-width="1" opacity="1"/><line transform="translate(235,-330)" x2="0" y2="330" stroke="#e8e8e8" stroke-width="1" opacity="1"/><line transform="translate(319,-330)" x2="0" y2="330" stroke="#e8e8e8" stroke-width="1" opacity="1"/><line transform="translate(395,-330)" x2="0" y2="330" stroke="#e8e8e8" stroke-width="1" opacity="1"/></g></g><path class="foreground" aria-hidden="true" d="" pointer-events="none" display="none"/></g></g><g class="mark-group role-axis" aria-hidden="true"><g transform="translate(0.5,0.5)"><path class="background" aria-hidden="true" d="M0,0h0v0h0Z" pointer-events="none"/><g><g class="mark-rule role-axis-grid" pointer-events="none"><line transform="translate(0,330)" x2="430" y2="0" stroke="#e8e8e8" stroke-width="1" opacity="1"/><line transform="translate(0,297)" x2="430" y2="0" stroke="#e8e8e8" stroke-width="1" opacity="1"/><line transform="translate(0,264)" x2="430" y2="0" stroke="#e8e8e8" stroke-width="1" opacity="1"/><line transform="translate(0,231)" x2="430" y2="0" stroke="#e8e8e8" stroke-width="1" opacity="1"/><line transform="translate(0,198)" x2="430" y2="0" stroke="#e8e8e8" stroke-width="1" opacity="1"/><line transform="translate(0,165)" x2="430" y2="0" stroke="#e8e8e8" stroke-width="1" opacity="1"/><line transform="translate(0,132)" x2="430" y2="0" stroke="#e8e8e8" stroke-width="1" opacity="1"/><line transform="translate(0,99)" x2="430" y2="0" stroke="#e8e8e8" stroke-width="1" opacity="1"/><line transform="translate(0,66)" x2="430" y2="0" stroke="#e8e8e8" stroke-width="1" opacity="1"/><line transform="translate(0,33)" x2="430" y2="0" stroke="#e8e8e8" stroke-width="1" opacity="1"/><line transform="translate(0,0)" x2="430" y2="0" stroke="#e8e8e8" stroke-width="1" opacity="1"/></g></g><path class="foreground" aria-hidden="true" d="" pointer-events="none" display="none"/></g></g><g class="mark-group role-axis" role="graphics-symbol" aria-roledescription="axis" aria-label="X-axis titled 'deployment harmful prevalence  π  (log scale)' for a log scale with values from 0.001 to 0.5"><g transform="translate(0.5,330.5)"><path class="background" aria-hidden="true" d="M0,0h0v0h0Z" pointer-events="none"/><g><g class="mark-rule role-axis-tick" pointer-events="none"><line transform="translate(0,0)" x2="0" y2="5" stroke="#888" stroke-width="1" opacity="1"/><line transform="translate(76,0)" x2="0" y2="5" stroke="#888" stroke-width="1" opacity="1"/><line transform="translate(159,0)" x2="0" y2="5" stroke="#888" stroke-width="1" opacity="1"/><line transform="translate(235,0)" x2="0" y2="5" stroke="#888" stroke-width="1" opacity="1"/><line transform="translate(319,0)" x2="0" y2="5" stroke="#888" stroke-width="1" opacity="1"/><line transform="translate(395,0)" x2="0" y2="5" stroke="#888" stroke-width="1" opacity="1"/></g><g class="mark-text role-axis-label" pointer-events="none"><text text-anchor="start" transform="translate(0,16)" font-family="sans-serif" font-size="11px" fill="#000" opacity="1">0.001</text><text text-anchor="middle" transform="translate(76.01497578700481,16)" font-family="sans-serif" font-size="11px" fill="#000" opacity="1">0.003</text><text text-anchor="middle" transform="translate(159.32003664701176,16)" font-family="sans-serif" font-size="11px" fill="#000" opacity="1">0.01</text><text text-anchor="middle" transform="translate(235.33501243401662,16)" font-family="sans-serif" font-size="11px" fill="#000" opacity="1">0.03</text><text text-anchor="middle" transform="translate(318.6400732940235,16)" font-family="sans-serif" font-size="11px" fill="#000" opacity="1">0.1</text><text text-anchor="middle" transform="translate(394.6550490810284,16)" font-family="sans-serif" font-size="11px" fill="#000" opacity="1">0.3</text></g><g class="mark-rule role-axis-domain" pointer-events="none"><line transform="translate(0,0)" x2="430" y2="0" stroke="#888" stroke-width="1" opacity="1"/></g><g class="mark-text role-axis-title" pointer-events="none"><text text-anchor="middle" transform="translate(215,31)" font-family="sans-serif" font-size="12px" font-weight="bold" fill="#000" opacity="1">deployment harmful prevalence  π  (log scale)</text></g></g><path class="foreground" aria-hidden="true" d="" pointer-events="none" display="none"/></g></g><g class="mark-group role-axis" role="graphics-symbol" aria-roledescription="axis" aria-label="Y-axis titled 'deployment precision at prevalence π' for a linear scale with values from 0.0 to 1.0"><g transform="translate(0.5,0.5)"><path class="background" aria-hidden="true" d="M0,0h0v0h0Z" pointer-events="none"/><g><g class="mark-rule role-axis-tick" pointer-events="none"><line transform="translate(0,330)" x2="-5" y2="0" stroke="#888" stroke-width="1" opacity="1"/><line transform="translate(0,297)" x2="-5" y2="0" stroke="#888" stroke-width="1" opacity="1"/><line transform="translate(0,264)" x2="-5" y2="0" stroke="#888" stroke-width="1" opacity="1"/><line transform="translate(0,231)" x2="-5" y2="0" stroke="#888" stroke-width="1" opacity="1"/><line transform="translate(0,198)" x2="-5" y2="0" stroke="#888" stroke-width="1" opacity="1"/><line transform="translate(0,165)" x2="-5" y2="0" stroke="#888" stroke-width="1" opacity="1"/><line transform="translate(0,132)" x2="-5" y2="0" stroke="#888" stroke-width="1" opacity="1"/><line transform="translate(0,99)" x2="-5" y2="0" stroke="#888" stroke-width="1" opacity="1"/><line transform="translate(0,66)" x2="-5" y2="0" stroke="#888" stroke-width="1" opacity="1"/><line transform="translate(0,33)" x2="-5" y2="0" stroke="#888" stroke-width="1" opacity="1"/><line transform="translate(0,0)" x2="-5" y2="0" stroke="#888" stroke-width="1" opacity="1"/></g><g class="mark-text role-axis-label" pointer-events="none"><text text-anchor="end" transform="translate(-7,333)" font-family="sans-serif" font-size="11px" fill="#000" opacity="1">0.0</text><text text-anchor="end" transform="translate(-7,300)" font-family="sans-serif" font-size="11px" fill="#000" opacity="1">0.1</text><text text-anchor="end" transform="translate(-7,267)" font-family="sans-serif" font-size="11px" fill="#000" opacity="1">0.2</text><text text-anchor="end" transform="translate(-7,233.99999999999997)" font-family="sans-serif" font-size="11px" fill="#000" opacity="1">0.3</text><text text-anchor="end" transform="translate(-7,201)" font-family="sans-serif" font-size="11px" fill="#000" opacity="1">0.4</text><text text-anchor="end" transform="translate(-7,168)" font-family="sans-serif" font-size="11px" fill="#000" opacity="1">0.5</text><text text-anchor="end" transform="translate(-7,135)" font-family="sans-serif" font-size="11px" fill="#000" opacity="1">0.6</text><text text-anchor="end" transform="translate(-7,102.00000000000001)" font-family="sans-serif" font-size="11px" fill="#000" opacity="1">0.7</text><text text-anchor="end" transform="translate(-7,68.99999999999999)" font-family="sans-serif" font-size="11px" fill="#000" opacity="1">0.8</text><text text-anchor="end" transform="translate(-7,35.99999999999999)" font-family="sans-serif" font-size="11px" fill="#000" opacity="1">0.9</text><text text-anchor="end" transform="translate(-7,3)" font-family="sans-serif" font-size="11px" fill="#000" opacity="1">1.0</text></g><g class="mark-rule role-axis-domain" pointer-events="none"><line transform="translate(0,330)" x2="0" y2="-330" stroke="#888" stroke-width="1" opacity="1"/></g><g class="mark-text role-axis-title" pointer-events="none"><text text-anchor="middle" transform="translate(-26.29150390625,165) rotate(-90) translate(0,-3)" font-family="sans-serif" font-size="12px" font-weight="bold" fill="#000" opacity="1">deployment precision at prevalence π</text></g></g><path class="foreground" aria-hidden="true" d="" pointer-events="none" display="none"/></g></g><g class="mark-group role-scope concat_1_layer_0_pathgroup" role="graphics-object" aria-roledescription="group mark container"><g transform="translate(0,0)"><path class="background" aria-hidden="true" d="M0,0h430v330h-430Z"/><g><g class="mark-line role-mark concat_1_layer_0_marks" role="graphics-object" aria-roledescription="line mark container"><path aria-label="pi: 0.001; precision: 0.0; config (selected on validation): constrained_cost (recall&gt;=0.95)" role="graphics-symbol" aria-roledescription="line mark" d="M0,315.163L1.078,314.941L2.155,314.715L3.233,314.486L4.311,314.254L5.388,314.018L6.466,313.78L7.544,313.537L8.622,313.292L9.699,313.043L10.777,312.79L11.855,312.534L12.932,312.274L14.01,312.011L15.088,311.744L16.165,311.473L17.243,311.198L18.321,310.92L19.398,310.638L20.476,310.351L21.554,310.061L22.632,309.767L23.709,309.469L24.787,309.166L25.865,308.86L26.942,308.549L28.02,308.234L29.098,307.915L30.175,307.591L31.253,307.263L32.331,306.931L33.409,306.594L34.486,306.252L35.564,305.906L36.642,305.555L37.719,305.2L38.797,304.839L39.875,304.474L40.952,304.104L42.03,303.73L43.108,303.35L44.185,302.965L45.263,302.575L46.341,302.18L47.419,301.78L48.496,301.375L49.574,300.964L50.652,300.548L51.729,300.127L52.807,299.7L53.885,299.268L54.962,298.83L56.04,298.386L57.118,297.937L58.195,297.483L59.273,297.022L60.351,296.556L61.429,296.084L62.506,295.605L63.584,295.121L64.662,294.631L65.739,294.135L66.817,293.633L67.895,293.125L68.972,292.61L70.05,292.089L71.128,291.562L72.206,291.028L73.283,290.488L74.361,289.941L75.439,289.388L76.516,288.829L77.594,288.262L78.672,287.689L79.749,287.11L80.827,286.523L81.905,285.93L82.982,285.33L84.06,284.723L85.138,284.109L86.216,283.488L87.293,282.86L88.371,282.225L89.449,281.582L90.526,280.933L91.604,280.276L92.682,279.613L93.759,278.941L94.837,278.263L95.915,277.577L96.992,276.884L98.07,276.183L99.148,275.475L100.226,274.759L101.303,274.036L102.381,273.305L103.459,272.567L104.536,271.821L105.614,271.067L106.692,270.306L107.769,269.537L108.847,268.76L109.925,267.976L111.003,267.183L112.08,266.383L113.158,265.576L114.236,264.76L115.313,263.937L116.391,263.105L117.469,262.266L118.546,261.419L119.624,260.564L120.702,259.702L121.779,258.831L122.857,257.953L123.935,257.066L125.013,256.172L126.09,255.27L127.168,254.36L128.246,253.442L129.323,252.517L130.401,251.583L131.479,250.642L132.556,249.693L133.634,248.736L134.712,247.772L135.789,246.8L136.867,245.82L137.945,244.832L139.023,243.837L140.1,242.834L141.178,241.823L142.256,240.806L143.333,239.78L144.411,238.747L145.489,237.707L146.566,236.659L147.644,235.604L148.722,234.542L149.799,233.472L150.877,232.396L151.955,231.312L153.033,230.221L154.11,229.124L155.188,228.019L156.266,226.908L157.343,225.79L158.421,224.665L159.499,223.534L160.576,222.396L161.654,221.251L162.732,220.101L163.81,218.944L164.887,217.781L165.965,216.612L167.043,215.436L168.12,214.255L169.198,213.069L170.276,211.876L171.353,210.678L172.431,209.475L173.509,208.266L174.586,207.052L175.664,205.832L176.742,204.608L177.82,203.379L178.897,202.145L179.975,200.907L181.053,199.664L182.13,198.416L183.208,197.164L184.286,195.908L185.363,194.648L186.441,193.385L187.519,192.117L188.596,190.846L189.674,189.571L190.752,188.294L191.83,187.012L192.907,185.728L193.985,184.441L195.063,183.152L196.14,181.859L197.218,180.564L198.296,179.267L199.373,177.968L200.451,176.667L201.529,175.364L202.607,174.059L203.684,172.753L204.762,171.445L205.84,170.137L206.917,168.827L207.995,167.516L209.073,166.204L210.15,164.892L211.228,163.58L212.306,162.267L213.383,160.954L214.461,159.641L215.539,158.329L216.617,157.016L217.694,155.705L218.772,154.394L219.85,153.084L220.927,151.774L222.005,150.466L223.083,149.16L224.16,147.855L225.238,146.551L226.316,145.249L227.393,143.949L228.471,142.652L229.549,141.356L230.627,140.063L231.704,138.773L232.782,137.485L233.86,136.2L234.937,134.918L236.015,133.639L237.093,132.363L238.17,131.091L239.248,129.823L240.326,128.558L241.404,127.297L242.481,126.039L243.559,124.786L244.637,123.538L245.714,122.293L246.792,121.053L247.87,119.818L248.947,118.587L250.025,117.362L251.103,116.141L252.18,114.925L253.258,113.715L254.336,112.51L255.414,111.31L256.491,110.116L257.569,108.928L258.647,107.745L259.724,106.568L260.802,105.397L261.88,104.232L262.957,103.073L264.035,101.921L265.113,100.775L266.19,99.635L267.268,98.501L268.346,97.375L269.424,96.255L270.501,95.141L271.579,94.035L272.657,92.935L273.734,91.842L274.812,90.756L275.89,89.678L276.967,88.606L278.045,87.542L279.123,86.485L280.201,85.435L281.278,84.392L282.356,83.357L283.434,82.329L284.511,81.309L285.589,80.296L286.667,79.291L287.744,78.294L288.822,77.304L289.9,76.322L290.977,75.347L292.055,74.38L293.133,73.421L294.211,72.47L295.288,71.526L296.366,70.591L297.444,69.663L298.521,68.743L299.599,67.83L300.677,66.926L301.754,66.029L302.832,65.141L303.91,64.26L304.987,63.387L306.065,62.522L307.143,61.665L308.221,60.816L309.298,59.974L310.376,59.14L311.454,58.315L312.531,57.497L313.609,56.687L314.687,55.884L315.764,55.09L316.842,54.303L317.92,53.524L318.997,52.753L320.075,51.989L321.153,51.233L322.231,50.485L323.308,49.744L324.386,49.011L325.464,48.286L326.541,47.568L327.619,46.857L328.697,46.155L329.774,45.459L330.852,44.771L331.93,44.09L333.008,43.417L334.085,42.751L335.163,42.092L336.241,41.441L337.318,40.796L338.396,40.159L339.474,39.529L340.551,38.906L341.629,38.29L342.707,37.681L343.784,37.078L344.862,36.483L345.94,35.895L347.018,35.313L348.095,34.738L349.173,34.17L350.251,33.608L351.328,33.053L352.406,32.505L353.484,31.963L354.561,31.427L355.639,30.898L356.717,30.375L357.794,29.859L358.872,29.348L359.95,28.844L361.028,28.346L362.105,27.854L363.183,27.369L364.261,26.889L365.338,26.415L366.416,25.947L367.494,25.484L368.571,25.028L369.649,24.577L370.727,24.132L371.805,23.693L372.882,23.259L373.96,22.83L375.038,22.407L376.115,21.99L377.193,21.578L378.271,21.171L379.348,20.769L380.426,20.372L381.504,19.981L382.581,19.595L383.659,19.213L384.737,18.837L385.815,18.466L386.892,18.099L387.97,17.738L389.048,17.381L390.125,17.029L391.203,16.681L392.281,16.338L393.358,16L394.436,15.666L395.514,15.337L396.591,15.012L397.669,14.691L398.747,14.375L399.825,14.063L400.902,13.755L401.98,13.451L403.058,13.152L404.135,12.857L405.213,12.565L406.291,12.278L407.368,11.994L408.446,11.715L409.524,11.439L410.602,11.167L411.679,10.899L412.757,10.634L413.835,10.374L414.912,10.116L415.99,9.863L417.068,9.613L418.145,9.366L419.223,9.123L420.301,8.883L421.378,8.646L422.456,8.413L423.534,8.183L424.612,7.957L425.689,7.733L426.767,7.513L427.845,7.296L428.922,7.082L430,6.871" stroke="#1f77b4" stroke-width="2.5"/></g></g><path class="foreground" aria-hidden="true" d="" display="none"/></g><g transform="translate(0,0)"><path class="background" aria-hidden="true" d="M0,0h430v330h-430Z"/><g><g class="mark-line role-mark concat_1_layer_0_marks" role="graphics-object" aria-roledescription="line mark container"><path aria-label="pi: 0.001; precision: 0.0; config (selected on validation): max_f1" role="graphics-symbol" aria-roledescription="line mark" d="M0,314.698L1.078,314.469L2.155,314.237L3.233,314.001L4.311,313.762L5.388,313.52L6.466,313.274L7.544,313.025L8.622,312.772L9.699,312.515L10.777,312.255L11.855,311.992L12.932,311.724L14.01,311.453L15.088,311.178L16.165,310.9L17.243,310.617L18.321,310.331L19.398,310.04L20.476,309.746L21.554,309.447L22.632,309.144L23.709,308.838L24.787,308.527L25.865,308.211L26.942,307.892L28.02,307.568L29.098,307.239L30.175,306.907L31.253,306.569L32.331,306.228L33.409,305.881L34.486,305.53L35.564,305.174L36.642,304.814L37.719,304.448L38.797,304.078L39.875,303.703L40.952,303.323L42.03,302.938L43.108,302.547L44.185,302.152L45.263,301.752L46.341,301.346L47.419,300.935L48.496,300.519L49.574,300.097L50.652,299.67L51.729,299.237L52.807,298.799L53.885,298.355L54.962,297.906L56.04,297.451L57.118,296.99L58.195,296.523L59.273,296.05L60.351,295.572L61.429,295.088L62.506,294.597L63.584,294.101L64.662,293.598L65.739,293.089L66.817,292.574L67.895,292.053L68.972,291.525L70.05,290.991L71.128,290.451L72.206,289.904L73.283,289.35L74.361,288.79L75.439,288.223L76.516,287.65L77.594,287.07L78.672,286.483L79.749,285.889L80.827,285.289L81.905,284.681L82.982,284.067L84.06,283.446L85.138,282.817L86.216,282.182L87.293,281.539L88.371,280.889L89.449,280.232L90.526,279.568L91.604,278.896L92.682,278.217L93.759,277.531L94.837,276.837L95.915,276.136L96.992,275.428L98.07,274.712L99.148,273.988L100.226,273.257L101.303,272.518L102.381,271.772L103.459,271.018L104.536,270.256L105.614,269.487L106.692,268.71L107.769,267.925L108.847,267.132L109.925,266.332L111.003,265.524L112.08,264.708L113.158,263.884L114.236,263.052L115.313,262.213L116.391,261.365L117.469,260.51L118.546,259.647L119.624,258.776L120.702,257.897L121.779,257.011L122.857,256.116L123.935,255.214L125.013,254.304L126.09,253.386L127.168,252.46L128.246,251.526L129.323,250.585L130.401,249.635L131.479,248.678L132.556,247.713L133.634,246.741L134.712,245.761L135.789,244.773L136.867,243.777L137.945,242.774L139.023,241.764L140.1,240.745L141.178,239.72L142.256,238.687L143.333,237.646L144.411,236.598L145.489,235.543L146.566,234.481L147.644,233.411L148.722,232.335L149.799,231.251L150.877,230.16L151.955,229.062L153.033,227.958L154.11,226.846L155.188,225.728L156.266,224.603L157.343,223.472L158.421,222.334L159.499,221.19L160.576,220.039L161.654,218.882L162.732,217.719L163.81,216.55L164.887,215.375L165.965,214.194L167.043,213.008L168.12,211.816L169.198,210.618L170.276,209.414L171.353,208.206L172.431,206.992L173.509,205.773L174.586,204.549L175.664,203.32L176.742,202.086L177.82,200.848L178.897,199.605L179.975,198.358L181.053,197.107L182.13,195.851L183.208,194.592L184.286,193.328L185.363,192.061L186.441,190.791L187.519,189.517L188.596,188.239L189.674,186.959L190.752,185.675L191.83,184.389L192.907,183.099L193.985,181.808L195.063,180.513L196.14,179.217L197.218,177.918L198.296,176.618L199.373,175.316L200.451,174.012L201.529,172.706L202.607,171.399L203.684,170.091L204.762,168.782L205.84,167.472L206.917,166.161L207.995,164.85L209.073,163.538L210.15,162.227L211.228,160.915L212.306,159.603L213.383,158.291L214.461,156.98L215.539,155.669L216.617,154.359L217.694,153.05L218.772,151.742L219.85,150.435L220.927,149.129L222.005,147.825L223.083,146.523L224.16,145.222L225.238,143.923L226.316,142.627L227.393,141.332L228.471,140.041L229.549,138.751L230.627,137.465L231.704,136.181L232.782,134.9L233.86,133.623L234.937,132.348L236.015,131.077L237.093,129.81L238.17,128.546L239.248,127.287L240.326,126.031L241.404,124.779L242.481,123.532L243.559,122.289L244.637,121.05L245.714,119.816L246.792,118.587L247.87,117.363L248.947,116.144L250.025,114.93L251.103,113.721L252.18,112.517L253.258,111.319L254.336,110.126L255.414,108.939L256.491,107.758L257.569,106.583L258.647,105.413L259.724,104.25L260.802,103.093L261.88,101.942L262.957,100.797L264.035,99.659L265.113,98.527L266.19,97.402L267.268,96.283L268.346,95.171L269.424,94.066L270.501,92.968L271.579,91.877L272.657,90.793L273.734,89.716L274.812,88.646L275.89,87.583L276.967,86.527L278.045,85.479L279.123,84.438L280.201,83.405L281.278,82.379L282.356,81.36L283.434,80.349L284.511,79.345L285.589,78.349L286.667,77.361L287.744,76.38L288.822,75.407L289.9,74.442L290.977,73.485L292.055,72.535L293.133,71.593L294.211,70.659L295.288,69.732L296.366,68.814L297.444,67.903L298.521,67L299.599,66.106L300.677,65.218L301.754,64.339L302.832,63.468L303.91,62.604L304.987,61.749L306.065,60.901L307.143,60.061L308.221,59.229L309.298,58.405L310.376,57.588L311.454,56.779L312.531,55.979L313.609,55.186L314.687,54.4L315.764,53.623L316.842,52.853L317.92,52.091L318.997,51.336L320.075,50.589L321.153,49.85L322.231,49.119L323.308,48.394L324.386,47.678L325.464,46.969L326.541,46.267L327.619,45.573L328.697,44.887L329.774,44.207L330.852,43.535L331.93,42.87L333.008,42.213L334.085,41.563L335.163,40.92L336.241,40.284L337.318,39.655L338.396,39.033L339.474,38.418L340.551,37.81L341.629,37.209L342.707,36.615L343.784,36.028L344.862,35.448L345.94,34.874L347.018,34.307L348.095,33.746L349.173,33.192L350.251,32.645L351.328,32.104L352.406,31.57L353.484,31.042L354.561,30.52L355.639,30.005L356.717,29.496L357.794,28.993L358.872,28.496L359.95,28.005L361.028,27.52L362.105,27.041L363.183,26.568L364.261,26.101L365.338,25.64L366.416,25.185L367.494,24.735L368.571,24.291L369.649,23.852L370.727,23.419L371.805,22.992L372.882,22.57L373.96,22.153L375.038,21.742L376.115,21.336L377.193,20.935L378.271,20.539L379.348,20.149L380.426,19.763L381.504,19.383L382.581,19.008L383.659,18.637L384.737,18.271L385.815,17.911L386.892,17.554L387.97,17.203L389.048,16.856L390.125,16.514L391.203,16.177L392.281,15.844L393.358,15.515L394.436,15.191L395.514,14.871L396.591,14.555L397.669,14.244L398.747,13.937L399.825,13.634L400.902,13.335L401.98,13.041L403.058,12.75L404.135,12.463L405.213,12.18L406.291,11.901L407.368,11.626L408.446,11.355L409.524,11.088L410.602,10.824L411.679,10.563L412.757,10.307L413.835,10.054L414.912,9.804L415.99,9.558L417.068,9.316L418.145,9.076L419.223,8.84L420.301,8.608L421.378,8.379L422.456,8.152L423.534,7.93L424.612,7.71L425.689,7.493L426.767,7.279L427.845,7.069L428.922,6.861L430,6.657" stroke="#d62728" stroke-width="2.5"/></g></g><path class="foreground" aria-hidden="true" d="" display="none"/></g></g><g class="mark-symbol role-mark concat_1_layer_1_marks" role="graphics-object" aria-roledescription="symbol mark container"><path aria-label="pi: 0.001; precision: 0.0449601983928; config (selected on validation): constrained_cost (recall&gt;=0.95); config: constrained_cost (recall&gt;=0.95)" role="graphics-symbol" aria-roledescription="point" transform="translate(0,315.1631345303789)" d="M4.183,0A4.183,4.183,0,1,1,-4.183,0A4.183,4.183,0,1,1,4.183,0" fill="#1f77b4" stroke-width="2" opacity="1"/><path aria-label="pi: 0.01; precision: 0.322055732592; config (selected on validation): constrained_cost (recall&gt;=0.95); config: constrained_cost (recall&gt;=0.95)" role="graphics-symbol" aria-roledescription="point" transform="translate(159.32003664701176,223.72160824462676)" d="M4.183,0A4.183,4.183,0,1,1,-4.183,0A4.183,4.183,0,1,1,4.183,0" fill="#1f77b4" stroke-width="2" opacity="1"/><path aria-label="pi: 0.05; precision: 0.712250712251; config (selected on validation): constrained_cost (recall&gt;=0.95); config: constrained_cost (recall&gt;=0.95)" role="graphics-symbol" aria-roledescription="point" transform="translate(270.67996335298824,94.95726495726497)" d="M4.183,0A4.183,4.183,0,1,1,-4.183,0A4.183,4.183,0,1,1,4.183,0" fill="#1f77b4" stroke-width="2" opacity="1"/><path aria-label="pi: 0.2; precision: 0.921614280171; config (selected on validation): constrained_cost (recall&gt;=0.95); config: constrained_cost (recall&gt;=0.95)" role="graphics-symbol" aria-roledescription="point" transform="translate(366.6001832350588,25.8672875436554)" d="M4.183,0A4.183,4.183,0,1,1,-4.183,0A4.183,4.183,0,1,1,4.183,0" fill="#1f77b4" stroke-width="2" opacity="1"/><path aria-label="pi: 0.001; precision: 0.0463683190775; config (selected on validation): max_f1; config: max_f1" role="graphics-symbol" aria-roledescription="point" transform="translate(0,314.6984547044091)" d="M4.183,0A4.183,4.183,0,1,1,-4.183,0A4.183,4.183,0,1,1,4.183,0" fill="#d62728" stroke-width="2" opacity="1"/><path aria-label="pi: 0.01; precision: 0.329151291513; config (selected on validation): max_f1; config: max_f1" role="graphics-symbol" aria-roledescription="point" transform="translate(159.32003664701176,221.38007380073802)" d="M4.183,0A4.183,4.183,0,1,1,-4.183,0A4.183,4.183,0,1,1,4.183,0" fill="#d62728" stroke-width="2" opacity="1"/><path aria-label="pi: 0.05; precision: 0.718827838828; config (selected on validation): max_f1; config: max_f1" role="graphics-symbol" aria-roledescription="point" transform="translate(270.67996335298824,92.78681318681322)" d="M4.183,0A4.183,4.183,0,1,1,-4.183,0A4.183,4.183,0,1,1,4.183,0" fill="#d62728" stroke-width="2" opacity="1"/><path aria-label="pi: 0.2; precision: 0.923917137476; config (selected on validation): max_f1; config: max_f1" role="graphics-symbol" aria-roledescription="point" transform="translate(366.6001832350588,25.10734463276839)" d="M4.183,0A4.183,4.183,0,1,1,-4.183,0A4.183,4.183,0,1,1,4.183,0" fill="#d62728" stroke-width="2" opacity="1"/></g><g class="mark-text role-mark concat_1_layer_2_marks" role="graphics-object" aria-roledescription="text mark container"><text aria-label="pi: 0.001; precision: 0.0449601983928; t: 0.045" role="graphics-symbol" aria-roledescription="text mark" text-anchor="start" transform="translate(8,309.1631345303789)" font-family="sans-serif" font-size="11.5px" font-weight="bold" fill="#333">0.045</text><text aria-label="pi: 0.01; precision: 0.322055732592; t: 0.32" role="graphics-symbol" aria-roledescription="text mark" text-anchor="start" transform="translate(167.32003664701176,217.72160824462676)" font-family="sans-serif" font-size="11.5px" font-weight="bold" fill="#333">0.32</text></g><g class="mark-group role-title"><g transform="translate(-39.29150390625,-51)"><path class="background" aria-hidden="true" d="M0,0h0v0h0Z" pointer-events="none"/><g><g class="mark-text role-title-text" role="graphics-symbol" aria-roledescription="title" aria-label="Title text 'B. The counterpoint: precision collapses at low π'" pointer-events="none"><text text-anchor="start" transform="translate(0,11)" font-family="sans-serif" font-size="14px" font-weight="bold" fill="#000" opacity="1">B. The counterpoint: precision collapses at low π</text></g><g class="mark-text role-title-subtitle" role="graphics-symbol" aria-roledescription="subtitle" aria-label="Subtitle text 'precision(π) = πR / (πR + (1−π)·FPR);  both configs FPR = 0.0202 same FPR ⇒ the two curves nearly coincide'" pointer-events="none"><text text-anchor="start" transform="translate(0,26)" font-family="sans-serif" font-size="11px" fill="#555" opacity="1"><tspan>precision(π) = πR / (πR + (1−π)·FPR);  both configs FPR = 0.0202</tspan><tspan x="0" dy="13">same FPR ⇒ the two curves nearly coincide</tspan></text></g></g><path class="foreground" aria-hidden="true" d="" pointer-events="none" display="none"/></g></g></g><path class="foreground" aria-hidden="true" d="" display="none"/></g></g><g class="mark-group role-legend" role="graphics-symbol" aria-roledescription="legend" aria-label="Symbol legend titled 'config (selected on validation)' for fill color and stroke color with 2 values: constrained_cost (recall&gt;=0.95), max_f1"><g transform="translate(0,381)"><path class="background" aria-hidden="true" d="M0,0h252v30h-252Z" pointer-events="none"/><g><g class="mark-group role-legend-entry"><g transform="translate(0,17)"><path class="background" aria-hidden="true" d="M0,0h0v0h0Z" pointer-events="none"/><g><g class="mark-group role-scope" role="graphics-object" aria-roledescription="group mark container"><g transform="translate(0,0.25)"><path class="background" aria-hidden="true" d="M0,0h184.09375v12.5h-184.09375Z" pointer-events="none" opacity="1"/><g><g class="mark-symbol role-legend-symbol" pointer-events="none"><path transform="translate(6,6)" d="M5,0A5,5,0,1,1,-5,0A5,5,0,1,1,5,0" fill="#1f77b4" stroke="#1f77b4" stroke-width="1.5" opacity="1"/></g><g class="mark-text role-legend-label" pointer-events="none"><text text-anchor="start" transform="translate(16,10)" font-family="sans-serif" font-size="12px" fill="#000" opacity="1">constrained_cost (recall&gt;=0.95)</text></g></g><path class="foreground" aria-hidden="true" d="" pointer-events="none" display="none"/></g><g transform="translate(196,0.25)"><path class="background" aria-hidden="true" d="M0,0h55.3515625v12.5h-55.3515625Z" pointer-events="none" opacity="1"/><g><g class="mark-symbol role-legend-symbol" pointer-events="none"><path transform="translate(6,6)" d="M5,0A5,5,0,1,1,-5,0A5,5,0,1,1,5,0" fill="#d62728" stroke="#d62728" stroke-width="1.5" opacity="1"/></g><g class="mark-text role-legend-label" pointer-events="none"><text text-anchor="start" transform="translate(16,10)" font-family="sans-serif" font-size="12px" fill="#000" opacity="1">max_f1</text></g></g><path class="foreground" aria-hidden="true" d="" pointer-events="none" display="none"/></g></g></g><path class="foreground" aria-hidden="true" d="" pointer-events="none" display="none"/></g></g><g class="mark-text role-legend-title" pointer-events="none"><text text-anchor="start" transform="translate(0,9)" font-family="sans-serif" font-size="12px" font-weight="bold" fill="#000" opacity="1">config (selected on validation)</text></g></g><path class="foreground" aria-hidden="true" d="" pointer-events="none" display="none"/></g></g><g class="mark-group role-title"><g transform="translate(-45.4091796875,-106)"><path class="background" aria-hidden="true" d="M0,0h0v0h0Z" pointer-events="none"/><g><g class="mark-text role-title-text" role="graphics-symbol" aria-roledescription="title" aria-label="Title text 'Two-stage cascade: cost saving and its precision cost'" pointer-events="none"><text text-anchor="start" transform="translate(0,13)" font-family="sans-serif" font-size="17px" font-weight="bold" fill="#000" opacity="1">Two-stage cascade: cost saving and its precision cost</text></g><g class="mark-text role-title-subtitle" role="graphics-symbol" aria-roledescription="subtitle" aria-label="Subtitle text 'constrained_cost: recall 0.9500, FPR 0.0202, r_H 0.9500, r_B 0.1212, b_B 0.1667   |   max_f1: recall 0.9812, FPR 0.0202, r_H 0.9812, r_B 0.3636, b_B 0.0556 Curves are computed in closed form from the measured stage rates; those rates are validation-measured (n=259) and both calibration and config selection happened on that same validation split (mild selection optimism).'" pointer-events="none"><text text-anchor="start" transform="translate(0,31)" font-family="sans-serif" font-size="11px" fill="#555" opacity="1"><tspan>constrained_cost: recall 0.9500, FPR 0.0202, r_H 0.9500, r_B 0.1212, b_B 0.1667   |   max_f1: recall 0.9812, FPR 0.0202, r_H 0.9812, r_B 0.3636, b_B 0.0556</tspan><tspan x="0" dy="13">Curves are computed in closed form from the measured stage rates; those rates are validation-measured (n=259) and both calibration and config selection happened on that same validation split (mild selection optimism).</tspan></text></g></g><path class="foreground" aria-hidden="true" d="" pointer-events="none" display="none"/></g></g></g><path class="foreground" aria-hidden="true" d="" display="none"/></g></g></g></svg>