<svg xmlns="http://www.w3.org/2000/svg" xmlns:xlink="http://www.w3.org/1999/xlink" version="1.1" class="marks" width="975" height="632" viewBox="0 0 975 632"><rect width="975" height="632" fill="white"/><g fill="none" stroke-miterlimit="10" transform="translate(70,63)"><g class="mark-group role-frame root" role="graphics-object" aria-roledescription="group mark container"><g transform="translate(0,0)"><path class="background" aria-hidden="true" d="M0,0h900v470h-900Z" fill="#fcfcfb"/><g><g class="mark-group role-axis" aria-hidden="true"><g transform="translate(0.5,470.5)"><path class="background" aria-hidden="true" d="M0,0h0v0h0Z" pointer-events="none"/><g><g class="mark-rule role-axis-grid" pointer-events="none"><line transform="translate(45,-470)" x2="0" y2="470" stroke="#e7e7e4" stroke-width="1" opacity="1"/><line transform="translate(324,-470)" x2="0" y2="470" stroke="#e7e7e4" stroke-width="1" opacity="1"/><line transform="translate(508,-470)" x2="0" y2="470" stroke="#e7e7e4" stroke-width="1" opacity="1"/><line transform="translate(590,-470)" x2="0" y2="470" stroke="#e7e7e4" stroke-width="1" opacity="1"/><line transform="translate(729,-470)" x2="0" y2="470" stroke="#e7e7e4" stroke-width="1" opacity="1"/><line transform="translate(832,-470)" x2="0" y2="470" stroke="#e7e7e4" stroke-width="1" opacity="1"/></g></g><path class="foreground" aria-hidden="true" d="" pointer-events="none" display="none"/></g></g><g class="mark-group role-axis" aria-hidden="true"><g transform="translate(0.5,0.5)"><path class="background" aria-hidden="true" d="M0,0h0v0h0Z" pointer-events="none"/><g><g class="mark-rule role-axis-grid" pointer-events="none"><line transform="translate(0,470)" x2="900" y2="0" stroke="#e7e7e4" stroke-width="1" opacity="1"/><line transform="translate(0,423)" x2="900" y2="0" stroke="#e7e7e4" stroke-width="1" opacity="1"/><line transform="translate(0,376)" x2="900" y2="0" stroke="#e7e7e4" stroke-width="1" opacity="1"/><line transform="translate(0,329)" x2="900" y2="0" stroke="#e7e7e4" stroke-width="1" opacity="1"/><line transform="translate(0,282)" x2="900" y2="0" stroke="#e7e7e4" stroke-width="1" opacity="1"/><line transform="translate(0,235)" x2="900" y2="0" stroke="#e7e7e4" stroke-width="1" opacity="1"/><line transform="translate(0,188)" x2="900" y2="0" stroke="#e7e7e4" stroke-width="1" opacity="1"/><line transform="translate(0,141)" x2="900" y2="0" stroke="#e7e7e4" stroke-width="1" opacity="1"/><line transform="translate(0,94)" x2="900" y2="0" stroke="#e7e7e4" stroke-width="1" opacity="1"/><line transform="translate(0,47)" x2="900" y2="0" stroke="#e7e7e4" stroke-width="1" opacity="1"/><line transform="translate(0,0)" x2="900" y2="0" stroke="#e7e7e4" stroke-width="1" opacity="1"/></g></g><path class="foreground" aria-hidden="true" d="" pointer-events="none" display="none"/></g></g><g class="mark-group role-axis" role="graphics-symbol" aria-roledescription="axis" aria-label="X-axis titled 'Decision threshold t on probe probability (log scale)' for a log scale with values from 0.008 to 0.7"><g transform="translate(0.5,470.5)"><path class="background" aria-hidden="true" d="M0,0h0v0h0Z" pointer-events="none"/><g><g class="mark-rule role-axis-tick" pointer-events="none"><line transform="translate(45,0)" x2="0" y2="5" stroke="#c9c9c4" stroke-width="1" opacity="1"/><line transform="translate(324,0)" x2="0" y2="5" stroke="#c9c9c4" stroke-width="1" opacity="1"/><line transform="translate(508,0)" x2="0" y2="5" stroke="#c9c9c4" stroke-width="1" opacity="1"/><line transform="translate(590,0)" x2="0" y2="5" stroke="#c9c9c4" stroke-width="1" opacity="1"/><line transform="translate(729,0)" x2="0" y2="5" stroke="#c9c9c4" stroke-width="1" opacity="1"/><line transform="translate(832,0)" x2="0" y2="5" stroke="#c9c9c4" stroke-width="1" opacity="1"/></g><g class="mark-text role-axis-label" pointer-events="none"><text text-anchor="middle" transform="translate(44.91176623676388,17)" font-family="sans-serif" font-size="13px" fill="#3a3a37" opacity="1">0.01</text><text text-anchor="middle" transform="translate(323.9291427877458,17)" font-family="sans-serif" font-size="13px" fill="#3a3a37" opacity="1">0.04</text><text text-anchor="middle" transform="translate(508.34959730000054,17)" font-family="sans-serif" font-size="13px" fill="#3a3a37" opacity="1">0.1</text><text text-anchor="middle" transform="translate(589.9569484659598,17)" font-family="sans-serif" font-size="13px" fill="#3a3a37" opacity="1">0.15</text><text text-anchor="middle" transform="translate(729.4656367414509,17)" font-family="sans-serif" font-size="13px" fill="#3a3a37" opacity="1">0.3</text><text text-anchor="middle" transform="translate(832.2787400877461,17)" font-family="sans-serif" font-size="13px" fill="#3a3a37" opacity="1">0.5</text></g><g class="mark-rule role-axis-domain" pointer-events="none"><line transform="translate(0,0)" x2="900" y2="0" stroke="#c9c9c4" stroke-width="1" opacity="1"/></g><g class="mark-text role-axis-title" pointer-events="none"><text text-anchor="middle" transform="translate(450,41)" font-family="sans-serif" font-size="14px" font-weight="bold" fill="#3a3a37" opacity="1">Decision threshold t on probe probability (log scale)</text></g></g><path class="foreground" aria-hidden="true" d="" pointer-events="none" display="none"/></g></g><g class="mark-group role-axis" role="graphics-symbol" aria-roledescription="axis" aria-label="Y-axis titled 'Rate (fraction of rows, 0–1)' for a linear scale with values from 0% to 100%"><g transform="translate(0.5,0.5)"><path class="background" aria-hidden="true" d="M0,0h0v0h0Z" pointer-events="none"/><g><g class="mark-rule role-axis-tick" pointer-events="none"><line transform="translate(0,470)" x2="-5" y2="0" stroke="#c9c9c4" stroke-width="1" opacity="1"/><line transform="translate(0,423)" x2="-5" y2="0" stroke="#c9c9c4" stroke-width="1" opacity="1"/><line transform="translate(0,376)" x2="-5" y2="0" stroke="#c9c9c4" stroke-width="1" opacity="1"/><line transform="translate(0,329)" x2="-5" y2="0" stroke="#c9c9c4" stroke-width="1" opacity="1"/><line transform="translate(0,282)" x2="-5" y2="0" stroke="#c9c9c4" stroke-width="1" opacity="1"/><line transform="translate(0,235)" x2="-5" y2="0" stroke="#c9c9c4" stroke-width="1" opacity="1"/><line transform="translate(0,188)" x2="-5" y2="0" stroke="#c9c9c4" stroke-width="1" opacity="1"/><line transform="translate(0,141)" x2="-5" y2="0" stroke="#c9c9c4" stroke-width="1" opacity="1"/><line transform="translate(0,94)" x2="-5" y2="0" stroke="#c9c9c4" stroke-width="1" opacity="1"/><line transform="translate(0,47)" x2="-5" y2="0" stroke="#c9c9c4" stroke-width="1" opacity="1"/><line transform="translate(0,0)" x2="-5" y2="0" stroke="#c9c9c4" stroke-width="1" opacity="1"/></g><g class="mark-text role-axis-label" pointer-events="none"><text text-anchor="end" transform="translate(-7,474)" font-family="sans-serif" font-size="13px" fill="#3a3a37" opacity="1">0%</text><text text-anchor="end" transform="translate(-7,427)" font-family="sans-serif" font-size="13px" fill="#3a3a37" opacity="1">10%</text><text text-anchor="end" transform="translate(-7,380)" font-family="sans-serif" font-size="13px" fill="#3a3a37" opacity="1">20%</text><text text-anchor="end" transform="translate(-7,333)" font-family="sans-serif" font-size="13px" fill="#3a3a37" opacity="1">30%</text><text text-anchor="end" transform="translate(-7,286)" font-family="sans-serif" font-size="13px" fill="#3a3a37" opacity="1">40%</text><text text-anchor="end" transform="translate(-7,239)" font-family="sans-serif" font-size="13px" fill="#3a3a37" opacity="1">50%</text><text text-anchor="end" transform="translate(-7,192)" font-family="sans-serif" font-size="13px" fill="#3a3a37" opacity="1">60%</text><text text-anchor="end" transform="translate(-7,145.00000000000003)" font-family="sans-serif" font-size="13px" fill="#3a3a37" opacity="1">70%</text><text text-anchor="end" transform="translate(-7,97.99999999999999)" font-family="sans-serif" font-size="13px" fill="#3a3a37" opacity="1">80%</text><text text-anchor="end" transform="translate(-7,50.99999999999999)" font-family="sans-serif" font-size="13px" fill="#3a3a37" opacity="1">90%</text><text text-anchor="end" transform="translate(-7,4)" font-family="sans-serif" font-size="13px" fill="#3a3a37" opacity="1">100%</text></g><g class="mark-rule role-axis-domain" pointer-events="none"><line transform="translate(0,470)" x2="0" y2="-470" stroke="#c9c9c4" stroke-width="1" opacity="1"/></g><g class="mark-text role-axis-title" pointer-events="none"><text text-anchor="middle" transform="translate(-50.2490234375,235) rotate(-90) translate(0,-3)" font-family="sans-serif" font-size="14px" font-weight="bold" fill="#3a3a37" opacity="1">Rate (fraction of rows, 0–1)</text></g></g><path class="foreground" aria-hidden="true" d="" pointer-events="none" display="none"/></g></g><g class="mark-text role-mark layer_0_marks" role="graphics-object" aria-roledescription="text mark container"><text aria-label="threshold: 0.122; value: 45%; text: knee: t ≈ 0.10–0.15" role="graphics-symbol" aria-roledescription="text mark" text-anchor="middle" transform="translate(549.195195085781,262.5)" font-family="sans-serif" font-size="13px" font-weight="bold" fill="#333333">knee: t ≈ 0.10–0.15</text></g><g class="mark-rect role-mark layer_1_marks" role="graphics-object" aria-roledescription="rect mark container"><path aria-label="lo: 0.1; hi: 0.15" role="graphics-symbol" aria-roledescription="rect mark" d="M508.34959730000054,0h81.6073511659593v470h-81.6073511659593Z" fill="#0072B2" opacity="0.07"/></g><g class="mark-text role-mark layer_2_marks" role="graphics-object" aria-roledescription="text mark container"><text aria-label="threshold: 0.122; value: 39%; text: recall 0.950–0.9625 · recommended" role="graphics-symbol" aria-roledescription="text mark" text-anchor="middle" transform="translate(549.195195085781,289.7)" font-family="sans-serif" font-size="11px" fill="#5a5a56">recall 0.950–0.9625 · recommended</text></g><g class="mark-rule role-mark layer_3_marks" role="graphics-object" aria-roledescription="rule mark container"><line aria-label="threshold: 0.54" role="graphics-symbol" aria-roledescription="rule mark" transform="translate(847.768572836606,0)" x2="0" y2="470" stroke="#77736c" stroke-width="1.5" stroke-dasharray="5,4"/></g><g class="mark-text role-mark layer_4_marks" role="graphics-object" aria-roledescription="text mark container"><text aria-label="threshold: 0.505; value: 5%; text: F1-optimal t = 0.540" role="graphics-symbol" aria-roledescription="text mark" text-anchor="end" transform="translate(834.2814281807874,452.84999999999997)" font-family="sans-serif" font-size="12px" fill="#4a4744">F1-optimal t = 0.540</text></g><g class="mark-group role-scope layer_5_pathgroup" role="graphics-object" aria-roledescription="group mark container"><g transform="translate(0,0)"><path class="background" aria-hidden="true" d="M0,0h900v470h-900Z"/><g><g class="mark-line role-mark layer_5_marks" role="graphics-object" aria-roledescription="line mark container"><path aria-label="threshold: 0.01; value: 99%; metric: Harmful recall" role="graphics-symbol" aria-roledescription="line mark" d="M44.912,5.875L323.929,11.75L508.35,17.625L589.957,23.5L729.466,44.18L832.279,47L847.769,49.82" stroke="#0072B2" stroke-width="2"/></g></g><path class="foreground" aria-hidden="true" d="" display="none"/></g><g transform="translate(0,0)"><path class="background" aria-hidden="true" d="M0,0h900v470h-900Z"/><g><g class="mark-line role-mark layer_5_marks" role="graphics-object" aria-roledescription="line mark container"><path aria-label="threshold: 0.01; value: 57%; metric: False-positive rate" role="graphics-symbol" aria-roledescription="line mark" d="M44.912,203.98L323.929,289.52L508.35,332.29L589.957,365.66L729.466,398.56L832.279,431.93L847.769,441.33" stroke="#D55E00" stroke-width="2"/></g></g><path class="foreground" aria-hidden="true" d="" display="none"/></g><g transform="translate(0,0)"><path class="background" aria-hidden="true" d="M0,0h900v470h-900Z"/><g><g class="mark-line role-mark layer_5_marks" role="graphics-object" aria-roledescription="line mark container"><path aria-label="threshold: 0.01; value: 83%; metric: Routing rate (→ guard)" role="graphics-symbol" aria-roledescription="line mark" d="M44.912,81.78L323.929,117.97L508.35,137.71L589.957,154.16L729.466,179.54L832.279,194.11L847.769,199.75" stroke="#009E73" stroke-width="2"/></g></g><path class="foreground" aria-hidden="true" d="" display="none"/></g></g><g class="mark-symbol role-mark layer_6_marks" role="graphics-object" aria-roledescription="symbol mark container"><path aria-label="threshold: 0.01; value: 99%; metric: Harmful recall" role="graphics-symbol" aria-roledescription="point" transform="translate(44.91176623676388,5.874999999999979)" d="M4.183,0A4.183,4.183,0,1,1,-4.183,0A4.183,4.183,0,1,1,4.183,0" fill="#0072B2" stroke="#fcfcfb" stroke-width="2" opacity="0.7"/><path aria-label="threshold: 0.04; value: 98%; metric: Harmful recall" role="graphics-symbol" aria-roledescription="point" transform="translate(323.9291427877458,11.75000000000001)" d="M4.183,0A4.183,4.183,0,1,1,-4.183,0A4.183,4.183,0,1,1,4.183,0" fill="#0072B2" stroke="#fcfcfb" stroke-width="2" opacity="0.7"/><path aria-label="threshold: 0.1; value: 96%; metric: Harmful recall" role="graphics-symbol" aria-roledescription="point" transform="translate(508.34959730000054,17.62499999999999)" d="M4.183,0A4.183,4.183,0,1,1,-4.183,0A4.183,4.183,0,1,1,4.183,0" fill="#0072B2" stroke="#fcfcfb" stroke-width="2" opacity="0.7"/><path aria-label="threshold: 0.15; value: 95%; metric: Harmful recall" role="graphics-symbol" aria-roledescription="point" transform="translate(589.9569484659598,23.50000000000002)" d="M4.183,0A4.183,4.183,0,1,1,-4.183,0A4.183,4.183,0,1,1,4.183,0" fill="#0072B2" stroke="#fcfcfb" stroke-width="2" opacity="0.7"/><path aria-label="threshold: 0.3; value: 91%; metric: Harmful recall" role="graphics-symbol" aria-roledescription="point" transform="translate(729.4656367414509,44.179999999999986)" d="M4.183,0A4.183,4.183,0,1,1,-4.183,0A4.183,4.183,0,1,1,4.183,0" fill="#0072B2" stroke="#fcfcfb" stroke-width="2" opacity="0.7"/><path aria-label="threshold: 0.5; value: 90%; metric: Harmful recall" role="graphics-symbol" aria-roledescription="point" transform="translate(832.2787400877461,46.99999999999999)" d="M4.183,0A4.183,4.183,0,1,1,-4.183,0A4.183,4.183,0,1,1,4.183,0" fill="#0072B2" stroke="#fcfcfb" stroke-width="2" opacity="0.7"/><path aria-label="threshold: 0.54; value: 89%; metric: Harmful recall" role="graphics-symbol" aria-roledescription="point" transform="translate(847.768572836606,49.81999999999999)" d="M4.183,0A4.183,4.183,0,1,1,-4.183,0A4.183,4.183,0,1,1,4.183,0" fill="#0072B2" stroke="#fcfcfb" stroke-width="2" opacity="0.7"/><path aria-label="threshold: 0.01; value: 57%; metric: False-positive rate" role="graphics-symbol" aria-roledescription="point" transform="translate(44.91176623676388,203.98000000000002)" d="M4.183,0A4.183,4.183,0,1,1,-4.183,0A4.183,4.183,0,1,1,4.183,0" fill="#D55E00" stroke="#fcfcfb" stroke-width="2" opacity="0.7"/><path aria-label="threshold: 0.04; value: 38%; metric: False-positive rate" role="graphics-symbol" aria-roledescription="point" transform="translate(323.9291427877458,289.52)" d="M4.183,0A4.183,4.183,0,1,1,-4.183,0A4.183,4.183,0,1,1,4.183,0" fill="#D55E00" stroke="#fcfcfb" stroke-width="2" opacity="0.7"/><path aria-label="threshold: 0.1; value: 29%; metric: False-positive rate" role="graphics-symbol" aria-roledescription="point" transform="translate(508.34959730000054,332.29)" d="M4.183,0A4.183,4.183,0,1,1,-4.183,0A4.183,4.183,0,1,1,4.183,0" fill="#D55E00" stroke="#fcfcfb" stroke-width="2" opacity="0.7"/><path aria-label="threshold: 0.15; value: 22%; metric: False-positive rate" role="graphics-symbol" aria-roledescription="point" transform="translate(589.9569484659598,365.66)" d="M4.183,0A4.183,4.183,0,1,1,-4.183,0A4.183,4.183,0,1,1,4.183,0" fill="#D55E00" stroke="#fcfcfb" stroke-width="2" opacity="0.7"/><path aria-label="threshold: 0.3; value: 15%; metric: False-positive rate" role="graphics-symbol" aria-roledescription="point" transform="translate(729.4656367414509,398.56)" d="M4.183,0A4.183,4.183,0,1,1,-4.183,0A4.183,4.183,0,1,1,4.183,0" fill="#D55E00" stroke="#fcfcfb" stroke-width="2" opacity="0.7"/><path aria-label="threshold: 0.5; value: 8%; metric: False-positive rate" role="graphics-symbol" aria-roledescription="point" transform="translate(832.2787400877461,431.93)" d="M4.183,0A4.183,4.183,0,1,1,-4.183,0A4.183,4.183,0,1,1,4.183,0" fill="#D55E00" stroke="#fcfcfb" stroke-width="2" opacity="0.7"/><path aria-label="threshold: 0.54; value: 6%; metric: False-positive rate" role="graphics-symbol" aria-roledescription="point" transform="translate(847.768572836606,441.33000000000004)" d="M4.183,0A4.183,4.183,0,1,1,-4.183,0A4.183,4.183,0,1,1,4.183,0" fill="#D55E00" stroke="#fcfcfb" stroke-width="2" opacity="0.7"/><path aria-label="threshold: 0.01; value: 83%; metric: Routing rate (→ guard)" role="graphics-symbol" aria-roledescription="point" transform="translate(44.91176623676388,81.78000000000002)" d="M4.183,0A4.183,4.183,0,1,1,-4.183,0A4.183,4.183,0,1,1,4.183,0" fill="#009E73" stroke="#fcfcfb" stroke-width="2" opacity="0.7"/><path aria-label="threshold: 0.04; value: 75%; metric: Routing rate (→ guard)" role="graphics-symbol" aria-roledescription="point" transform="translate(323.9291427877458,117.97)" d="M4.183,0A4.183,4.183,0,1,1,-4.183,0A4.183,4.183,0,1,1,4.183,0" fill="#009E73" stroke="#fcfcfb" stroke-width="2" opacity="0.7"/><path aria-label="threshold: 0.1; value: 71%; metric: Routing rate (→ guard)" role="graphics-symbol" aria-roledescription="point" transform="translate(508.34959730000054,137.71)" d="M4.183,0A4.183,4.183,0,1,1,-4.183,0A4.183,4.183,0,1,1,4.183,0" fill="#009E73" stroke="#fcfcfb" stroke-width="2" opacity="0.7"/><path aria-label="threshold: 0.15; value: 67%; metric: Routing rate (→ guard)" role="graphics-symbol" aria-roledescription="point" transform="translate(589.9569484659598,154.15999999999997)" d="M4.183,0A4.183,4.183,0,1,1,-4.183,0A4.183,4.183,0,1,1,4.183,0" fill="#009E73" stroke="#fcfcfb" stroke-width="2" opacity="0.7"/><path aria-label="threshold: 0.3; value: 62%; metric: Routing rate (→ guard)" role="graphics-symbol" aria-roledescription="point" transform="translate(729.4656367414509,179.54)" d="M4.183,0A4.183,4.183,0,1,1,-4.183,0A4.183,4.183,0,1,1,4.183,0" fill="#009E73" stroke="#fcfcfb" stroke-width="2" opacity="0.7"/><path aria-label="threshold: 0.5; value: 59%; metric: Routing rate (→ guard)" role="graphics-symbol" aria-roledescription="point" transform="translate(832.2787400877461,194.11)" d="M4.183,0A4.183,4.183,0,1,1,-4.183,0A4.183,4.183,0,1,1,4.183,0" fill="#009E73" stroke="#fcfcfb" stroke-width="2" opacity="0.7"/><path aria-label="threshold: 0.54; value: 57%; metric: Routing rate (→ guard)" role="graphics-symbol" aria-roledescription="point" transform="translate(847.768572836606,199.75000000000003)" d="M4.183,0A4.183,4.183,0,1,1,-4.183,0A4.183,4.183,0,1,1,4.183,0" fill="#009E73" stroke="#fcfcfb" stroke-width="2" opacity="0.7"/></g><g class="mark-text role-mark layer_7_marks" role="graphics-object" aria-roledescription="text mark container"><text aria-label="threshold: 0.01; value: 99%; label: 0.988" role="graphics-symbol" aria-roledescription="text mark" text-anchor="start" transform="translate(52.91176623676388,1.8749999999999787)" font-family="sans-serif" font-size="12px" fill="#3a3a37">0.988</text><text aria-label="threshold: 0.01; value: 57%; label: 0.566" role="graphics-symbol" aria-roledescription="text mark" text-anchor="start" transform="translate(52.91176623676388,199.98000000000002)" font-family="sans-serif" font-size="12px" fill="#3a3a37">0.566</text><text aria-label="threshold: 0.01; value: 83%; label: 0.826" role="graphics-symbol" aria-roledescription="text mark" text-anchor="start" transform="translate(52.91176623676388,77.78000000000002)" font-family="sans-serif" font-size="12px" fill="#3a3a37">0.826</text></g><g class="mark-group role-legend" role="graphics-symbol" aria-roledescription="legend" aria-label="Symbol legend for fill color and stroke color with 3 values: Harmful recall, False-positive rate, Routing rate (→ guard)"><g transform="translate(0,532)"><path class="background" aria-hidden="true" d="M3.5,0.5L409.5,0.5C411.155745073482,0.5,412.5,1.844254926518,412.5,3.5L412.5,28.5C412.5,30.155745073482,411.155745073482,31.5,409.5,31.5L3.5,31.5C1.844254926518,31.5,0.5,30.155745073482,0.5,28.5L0.5,3.5C0.5,1.844254926518,1.844254926518,0.5,3.5,0.5Z" pointer-events="none" fill="#ffffff" stroke="#ddddda"/><g><g class="mark-group role-legend-entry"><g transform="translate(8,8)"><path class="background" aria-hidden="true" d="M0,0h0v0h0Z" pointer-events="none"/><g><g class="mark-group role-scope" role="graphics-object" aria-roledescription="group mark container"><g transform="translate(0,0.25)"><path class="background" aria-hidden="true" d="M0,0h97.18359375v14.5h-97.18359375Z" pointer-events="none" opacity="1"/><g><g class="mark-symbol role-legend-symbol" pointer-events="none"><path transform="translate(6.5,6.5)" d="M5,0A5,5,0,1,1,-5,0A5,5,0,1,1,5,0" fill="#0072B2" stroke="#0072B2" stroke-width="3" opacity="0.7"/></g><g class="mark-text role-legend-label" pointer-events="none"><text text-anchor="start" transform="translate(17,10.5)" font-family="sans-serif" font-size="13px" fill="#000" opacity="1">Harmful recall</text></g></g><path class="foreground" aria-hidden="true" d="" pointer-events="none" display="none"/></g><g transform="translate(110,0.25)"><path class="background" aria-hidden="true" d="M0,0h123.208984375v14.5h-123.208984375Z" pointer-events="none" opacity="1"/><g><g class="mark-symbol role-legend-symbol" pointer-events="none"><path transform="translate(6.5,6.5)" d="M5,0A5,5,0,1,1,-5,0A5,5,0,1,1,5,0" fill="#D55E00" stroke="#D55E00" stroke-width="3" opacity="0.7"/></g><g class="mark-text role-legend-label" pointer-events="none"><text text-anchor="start" transform="translate(17,10.5)" font-family="sans-serif" font-size="13px" fill="#000" opacity="1">False-positive rate</text></g></g><path class="foreground" aria-hidden="true" d="" pointer-events="none" display="none"/></g><g transform="translate(246,0.25)"><path class="background" aria-hidden="true" d="M0,0h149.95166015625v14.5h-149.95166015625Z" pointer-events="none" opacity="1"/><g><g class="mark-symbol role-legend-symbol" pointer-events="none"><path transform="translate(6.5,6.5)" d="M5,0A5,5,0,1,1,-5,0A5,5,0,1,1,5,0" fill="#009E73" stroke="#009E73" stroke-width="3" opacity="0.7"/></g><g class="mark-text role-legend-label" pointer-events="none"><text text-anchor="start" transform="translate(17,10.5)" font-family="sans-serif" font-size="13px" fill="#000" opacity="1">Routing rate (→ guard)</text></g></g><path class="foreground" aria-hidden="true" d="" pointer-events="none" display="none"/></g></g></g><path class="foreground" aria-hidden="true" d="" pointer-events="none" display="none"/></g></g></g><path class="foreground" aria-hidden="true" d="" pointer-events="none" display="none"/></g></g><g class="mark-group role-title"><g transform="translate(-64.2490234375,-57.12500000000002)"><path class="background" aria-hidden="true" d="M0,0h0v0h0Z" pointer-events="none"/><g><g class="mark-text role-title-text" role="graphics-symbol" aria-roledescription="title" aria-label="Title text 'Linear probe operating curve — threshold sweep'" pointer-events="none"><text text-anchor="start" transform="translate(0,15)" font-family="sans-serif" font-size="19px" font-weight="bold" fill="#000" opacity="1">Linear probe operating curve — threshold sweep</text></g><g class="mark-text role-title-subtitle" role="graphics-symbol" aria-roledescription="subtitle" aria-label="Subtitle text 'Layer-27 last-token probe, validation split (n = 259 exchanges). Lowering t buys harmful recall at the cost of false positives and guard traffic.'" pointer-events="none"><text text-anchor="start" transform="translate(0,32)" font-family="sans-serif" font-size="13px" fill="#5a5a56" opacity="1">Layer-27 last-token probe, validation split (n = 259 exchanges). Lowering t buys harmful recall at the cost of false positives and guard traffic.</text></g></g><path class="foreground" aria-hidden="true" d="" pointer-events="none" display="none"/></g></g></g><path class="foreground" aria-hidden="true" d="" display="none"/></g></g></g></svg>